<svg width="34" height="31" viewBox="0 0 34 31" fill="none" xmlns="http://www.w3.org/2000/svg">
<path d="M34 13.0781V14.0469C34 14.8494 33.3657 15.5 32.5833 15.5H32.1111L30.5697 26.5672C30.3703 27.999 29.1749 29.0625 27.7649 29.0625H6.2351C4.82511 29.0625 3.62968 27.999 3.43022 26.5672L1.88889 15.5H1.41667C0.634253 15.5 0 14.8494 0 14.0469V13.0781C0 12.2756 0.634253 11.625 1.41667 11.625H5.39166L11.6946 2.73544C12.3082 1.8701 13.4895 1.67871 14.3332 2.3081C15.1769 2.93748 15.3635 4.1492 14.7499 5.0146L10.0629 11.625H23.9371L19.2501 5.01454C18.6365 4.14921 18.8231 2.93742 19.6668 2.30804C20.5104 1.67865 21.6918 1.86998 22.3054 2.73538L28.6083 11.625H32.5833C33.3657 11.625 34 12.2756 34 13.0781ZM18.4167 23.7344V16.9531C18.4167 16.1506 17.7824 15.5 17 15.5C16.2176 15.5 15.5833 16.1506 15.5833 16.9531V23.7344C15.5833 24.5369 16.2176 25.1875 17 25.1875C17.7824 25.1875 18.4167 24.5369 18.4167 23.7344ZM25.0278 23.7344V16.9531C25.0278 16.1506 24.3935 15.5 23.6111 15.5C22.8287 15.5 22.1944 16.1506 22.1944 16.9531V23.7344C22.1944 24.5369 22.8287 25.1875 23.6111 25.1875C24.3935 25.1875 25.0278 24.5369 25.0278 23.7344ZM11.8056 23.7344V16.9531C11.8056 16.1506 11.1713 15.5 10.3889 15.5C9.60648 15.5 8.97222 16.1506 8.97222 16.9531V23.7344C8.97222 24.5369 9.60648 25.1875 10.3889 25.1875C11.1713 25.1875 11.8056 24.5369 11.8056 23.7344Z" fill="white"/>
</svg>
